<svg xmlns="http://www.w3.org/2000/svg" version="1.1" xmlns:xlink="http://www.w3.org/1999/xlink" xmlns:svgjs="http://svgjs.dev/svgjs" width="512" height="512"><svg xmlns="http://www.w3.org/2000/svg" width="512" height="512" fill="none"><path fill="#0B4535" d="M0 0h512v512H0z"></path><path fill="#fff" d="M332.499 385.503h-26.847c-6.147 0-7.563-1.371-8.56-7.817-1.992-12.762-3.828-25.556-6.054-38.285-2.692-15.406-5.805-30.73-8.56-46.135-1.665-9.286-2.848-18.669-4.466-27.971-1.479-8.486-3.378-16.891-4.856-25.361-1.557-8.91-2.739-17.886-4.296-26.78-1.572-8.975-3.486-17.886-5.089-26.861-.872-4.896-1.354-9.857-2.117-14.786-.435-2.839-.202-6.168-4.357-6.478-7.222-.523-9.65.506-10.661 5.565-1.915 9.644-3.58 19.338-5.37 28.999-2.381 12.827-4.887 25.638-7.175 38.481-1.525 8.502-2.677 17.07-4.14 25.572-1.649 9.58-3.501 19.11-5.151 28.673-1.416 8.242-2.615 16.516-4.047 24.757-1.68 9.71-3.595 19.371-5.276 29.065-1.463 8.486-2.739 17.004-4.14 25.507-.56 3.443-.996 6.919-1.914 10.265-.778 2.774-3.05 3.59-5.774 3.59-17.244-.065-34.489-.016-51.733-.016-1.946 0-3.907-.18-5.836.049-4.125.505-6.039-2.204-6.942-5.598-3.268-12.321-6.256-24.724-9.431-37.078-3.004-11.684-6.226-23.32-9.167-35.037-3.424-13.659-6.521-27.4-9.945-41.06-2.755-10.917-6.054-21.688-8.638-32.638-2.35-9.939-4.109-20.024-6.07-30.06-1.712-8.846-3.44-17.691-4.965-26.568-.824-4.798-1.322-9.645-1.79-14.492-.855-8.894-1.696-17.788-2.303-26.698-.327-4.929 1.619-7.001 6.366-7.034 12.31-.082 24.637.033 36.948 0 3.299 0 4.653 1.191 4.778 5.026.622 18.327 1.011 36.703 2.645 54.931 1.136 12.68 4.094 25.181 6.366 37.747a576.1 576.1 0 0 0 4.389 21.721c1.478 6.658 3.33 13.235 4.824 19.893 1.588 7.099 2.864 14.263 4.436 21.378 1.51 6.806 3.284 13.546 4.809 20.351 1.51 6.707 2.802 13.463 4.296 20.154 1.836 8.258 3.673 16.515 5.727 24.708.872 3.492 5.307 5.303 10.49 4.667 3.579-.441 3.751-3.28 4.218-6.218.965-6.119 2.319-12.174 3.392-18.277.748-4.227 1.292-8.503 1.946-12.762 2.117-13.757 4.186-27.531 6.381-41.272 1.727-10.771 3.626-21.525 5.432-32.296 1.867-11.162 3.626-22.357 5.602-33.503 1.479-8.323 3.362-16.581 4.841-24.904 1.494-8.486 2.692-17.037 4.077-25.556 1.261-7.735 2.537-15.454 3.954-23.157.466-2.562 1.945-4.129 4.715-4.488 14.319-1.844 28.637-3.818 42.94-5.793 6.132-.849 12.249-1.811 18.365-2.807 6.179-.995 7.268-.131 8.358 6.365 2.256 13.43 4.684 26.812 6.879 40.259 1.54 9.449 2.77 18.947 4.248 28.396 1.51 9.726 3.222 19.404 4.732 29.13.996 6.397 1.774 12.843 2.723 19.241.498 3.345 1.199 6.642 1.759 9.971 2.381 14.377 4.809 28.738 7.082 43.132 1.556 9.857 2.77 19.779 4.326 29.636 1.027 6.527 2.21 13.039 3.704 19.452 1.214 5.19 9.587 8.013 13.011 4.194 1.821-2.04 2.491-5.418 3.191-8.323 2.303-9.53 4.373-19.126 6.568-28.689 1.572-6.805 3.206-13.578 4.824-20.366 2.304-9.678 4.669-19.323 6.911-29.016 1.572-6.822 2.926-13.676 4.435-20.514 1.619-7.36 3.346-14.703 4.918-22.08.81-3.802 1.479-7.637 2.039-11.489a699.922 699.922 0 0 0 2.381-18.114c2.491-21.15 3.409-42.398 2.942-63.694-.062-2.922.965-4.292 3.969-4.733 10.209-1.501 20.388-3.329 30.551-5.092 2.817-.489 5.416 1.257 5.322 4.26-.217 7.311-.544 14.638-1.213 21.917-.576 6.315-1.495 12.631-2.6 18.881a663.356 663.356 0 0 1-5.244 26.47c-1.79 8.111-3.86 16.14-5.946 24.169-2.256 8.715-4.762 17.364-6.988 26.078-2.179 8.568-4.077 17.217-6.241 25.801-1.992 7.931-4.186 15.797-6.256 23.712-1.619 6.201-3.113 12.452-4.794 18.637-2.21 8.143-4.576 16.221-6.786 24.365-1.509 5.565-2.848 11.178-4.233 16.792-1.992 8.062-3.844 16.173-5.992 24.185-.669 2.481-2.568 3.754-5.323 3.721-9.851-.114-19.703-.049-29.57-.049v.049l.046.033Z"></path></svg><style>@media (prefers-color-scheme: light) { :root { filter: none; } }
@media (prefers-color-scheme: dark) { :root { filter: none; } }
</style></svg>