<?xml version="1.0" encoding="UTF-8"?>
<svg id="Ebene_1" xmlns="http://www.w3.org/2000/svg" version="1.1" viewBox="0 0 130 24">
  <defs>
    <style>
      .st0 { fill: #0a4535; }
    </style>
  </defs>
  <path class="st0" d="M129.97,22.99L122.06.96c-.07-.23-.2-.33-.42-.33h-5.53c-.23,0-.36.1-.42.33l-7.75,22c-.07.23-.03.46.29.46h2.41l1.66-4.99c.2-.55.49-.8,1.04-.87,3.06-.39,7-.55,8.98-.55h1.11l2.14,6.41h4.13c.16,0,.36-.13.26-.42ZM113.44,14.99l3.68-11.06c.23-.72.46-.85,1.01-.85h.65l3.98,11.91h-9.32ZM30.99.41l-3.25.49c-.03,3.84-.1,6.09-1.14,10.51l-2.34,9.89h-.59c-.68,0-.85-.36-.94-1.01L19.63.8c-.03-.23-.16-.36-.39-.33l-6.61.78c-.2.03-.29.16-.33.36l-3.09,19.69h-.59c-.68,0-.81-.36-.94-1.01l-2.38-10.58c-.68-3.06-1.04-5.34-1.11-9.08H.33c-.2,0-.33.16-.33.36.2,3.51.81,6.64,1.69,10.15l2.99,11.98c.03.16.16.29.36.29h6.25c.16,0,.33-.13.36-.29l3.16-18.84c.07-.42.2-.78.65-.78h.62l3.38,19.62c.03.16.16.29.36.29h6.31c.16,0,.33-.13.36-.29l2.96-11.88c.85-3.42,1.69-6.44,1.89-10.48,0-.2-.07-.39-.36-.36ZM57.86,20.55V.51h-3.84c-.2,0-.36.16-.36.36v22.19c0,.2.16.36.36.36h14.55c.2,0,.36-.16.36-.36v-2.08c-3.42.36-6.7.59-9.99.59-.75,0-1.07-.36-1.07-1.01ZM38.6,20.58v-7h10.22v-2.08h-9.15c-.75,0-1.07-.36-1.07-1.01V2.56c3.97-.03,7.65.16,11.59.46V1c0-.2-.16-.36-.36-.36h-15.07c-.2,0-.36.16-.36.36v22.06c0,.2.16.36.36.36h15.26c.2,0,.36-.16.36-.36v-1.95c-3.87.26-5.53.46-10.71.46-.75,0-1.07-.33-1.07-.98ZM75.37,20.58v-7h10.22v-2.08h-9.15c-.75,0-1.07-.36-1.07-1.01V2.56c3.97-.03,7.65.16,11.59.46V1c0-.2-.16-.36-.36-.36h-15.07c-.2,0-.36.16-.36.36v22.06c0,.2.16.36.36.36h15.26c.2,0,.36-.16.36-.36v-1.95c-3.87.26-5.53.46-10.71.46-.75,0-1.07-.33-1.07-.98ZM98.44.64h-7.65c-.2,0-.36.16-.36.36v22.06c0,.2.16.36.36.36h8.73c4.56-2.83,8.91-7.43,9.3-15.91-1.43-4.65-5.47-6.87-10.38-6.87ZM98.22,21.56h-3.59V3.4c0-.65.33-1.01,1.07-1.01,6.38,0,7.5,2.4,8.91,5.5-.18,4.97-1.26,10.64-6.4,13.67Z"/>
</svg>
