<?xml version="1.0" encoding="UTF-8"?>
<svg id="Logo" xmlns="http://www.w3.org/2000/svg" baseProfile="tiny" version="1.2" viewBox="0 0 283.5 50.2">
  <!-- Generator: Adobe Illustrator 30.2.1, SVG Export Plug-In . SVG Version: 2.1.1 Build 1)  -->
  <defs>
    <style>
      .st0 {
        fill: #fff;
      }
    </style>
  </defs>
  <path class="st0" d="M283.4,49.3L266.2,1.2c-.1-.5-.4-.7-.9-.7h-12.1c-.5,0-.8.2-.9.7l-16.9,48c-.1.5,0,1,.6,1h5.3l3.6-10.9c.4-1.2,1.1-1.8,2.3-1.9,6.7-.9,15.3-1.2,19.6-1.2h2.4l4.7,14h9c.4,0,.8-.3.6-.9h0ZM247.4,31.8l8-24.1c.5-1.6,1-1.8,2.2-1.8h1.4l8.7,26h-20.3ZM67.6,0l-7.1,1.1c0,8.4-.2,13.3-2.5,22.9l-5.1,21.6h-1.3c-1.5,0-1.8-.8-2.1-2.2L42.8.9c0-.5-.4-.8-.9-.7l-14.4,1.7c-.4,0-.6.4-.7.8l-6.7,42.9h-1.3c-1.5,0-1.8-.8-2.1-2.2l-5.2-23.1c-1.5-6.7-2.3-11.6-2.4-19.8H.7c-.4,0-.7.4-.7.8.4,7.7,1.8,14.5,3.7,22.1l6.5,26.1c0,.4.4.6.8.6h13.6c.4,0,.7-.3.8-.6l6.9-41.1c.1-.9.4-1.7,1.4-1.7h1.3l7.4,42.8c0,.4.4.6.8.6h13.8c.4,0,.7-.3.8-.6l6.5-25.9c1.8-7.5,3.7-14,4.1-22.8,0-.4-.1-.9-.8-.8h0ZM126.2,43.9V.2h-8.4c-.4,0-.8.3-.8.8v48.4c0,.4.4.8.8.8h31.7c.4,0,.8-.4.8-.8v-4.5c-7.5.8-14.6,1.3-21.8,1.3s-2.3-.8-2.3-2.2ZM84.2,44v-15.3h22.3v-4.5h-19.9c-1.6,0-2.3-.8-2.3-2.2V4.7c8.7,0,16.7.4,25.3,1V1.3c0-.4-.4-.8-.8-.8h-32.9c-.4,0-.8.3-.8.8v48.1c0,.4.4.8.8.8h33.3c.4,0,.8-.3.8-.8v-4.3c-8.4.6-12.1,1-23.3,1s-2.3-.7-2.3-2.1h0ZM164.3,44v-15.3h22.3v-4.5h-19.9c-1.6,0-2.3-.8-2.3-2.2V4.7c8.7,0,16.7.4,25.3,1V1.3c0-.4-.4-.8-.8-.8h-32.9c-.4,0-.8.3-.8.8v48.1c0,.4.4.8.8.8h33.3c.4,0,.8-.4.8-.8v-4.3c-8.4.6-12.1,1-23.3,1s-2.3-.7-2.3-2.1ZM214.6.5h-16.7c-.4,0-.8.3-.8.8v48.1c0,.4.4.8.8.8h19c9.9-6.2,19.4-16.2,20.3-34.7-3.1-10.1-11.9-15-22.6-15h0ZM214.2,46.1h-7.8V6.5c0-1.4.7-2.2,2.3-2.2,13.9,0,16.3,5.2,19.4,12-.4,10.8-2.7,23.2-14,29.8h0Z"/>
</svg>